<?xml version="1.0" encoding="UTF-8" standalone="no"?>
<svg
   width="1024"
   height="1024"
   version="1.1"
   id="svg1"
   sodipodi:docname="nutrinutri-frame.svg"
   inkscape:version="1.4.3 (0d15f75, 2025-12-25)"
   xmlns:inkscape="http://www.inkscape.org/namespaces/inkscape"
   xmlns:sodipodi="http://sodipodi.sourceforge.net/DTD/sodipodi-0.dtd"
   xmlns="http://www.w3.org/2000/svg"
   xmlns:svg="http://www.w3.org/2000/svg">
  <defs
     id="defs1">
    <inkscape:path-effect
       effect="fillet_chamfer"
       id="path-effect2"
       is_visible="true"
       lpeversion="1"
       nodesatellites_param="F,0,0,1,0,115.67397,0,127 @ F,0,0,1,0,115.67397,0,127 @ F,0,0,1,0,115.67397,0,127 @ F,0,0,1,0,115.67397,0,127"
       radius="128"
       unit="px"
       method="bezier"
       mode="F"
       chamfer_steps="127"
       flexible="false"
       use_knot_distance="true"
       apply_no_radius="true"
       apply_with_radius="true"
       only_selected="false"
       hide_knots="false" />
  </defs>
  <sodipodi:namedview
     id="namedview1"
     pagecolor="#ffffff"
     bordercolor="#000000"
     borderopacity="0.25"
     inkscape:showpageshadow="2"
     inkscape:pageopacity="0.0"
     inkscape:pagecheckerboard="0"
     inkscape:deskcolor="#d1d1d1"
     inkscape:zoom="0.859375"
     inkscape:cx="496.29091"
     inkscape:cy="542.83636"
     inkscape:window-width="1650"
     inkscape:window-height="1186"
     inkscape:window-x="564"
     inkscape:window-y="60"
     inkscape:window-maximized="0"
     inkscape:current-layer="svg1" />
  <path
     id="rect1"
     style="fill:#f4f4f4;stroke-width:0.973572"
     transform="matrix(1.1086008,0,0,-1.1045235,-57.405347,-51.123106)"
     d="m 167.45577,-973.38184 h 689.08846 c 63.88497,0 115.86891,51.78863 116.10938,115.67315 l 2.62009,696.07192 c 0.24047,63.884517 -51.35293,115.412253 -115.23709,115.090418 L 167.4543,-50.035431 C 103.57014,-50.357266 51.781799,-102.40716 51.781799,-166.29213 l 0,-691.41574 c 0,-63.88497 51.789001,-115.67397 115.673971,-115.67397 z"
     inkscape:path-effect="#path-effect2"
     inkscape:original-d="M 51.781799,-973.38184 H 972.2182 l 3.49091,927.418221 -923.927311,-4.654545 z"
     sodipodi:nodetypes="ccccc" />
  <path
     style="fill:#ff6f61;stroke:none;stroke-width:0.980253"
     d="m 507.58135,252.24336 c 5.24431,-2.03107 9.30841,-6.04322 13.72343,-9.46035 6.6588,-5.15218 13.4323,-10.17396 20.58514,-14.62918 28.52317,-17.76595 62.85036,-33.03914 97.04425,-33.74492 -9.75539,5.14138 -20.47046,8.73399 -30.3876,13.69305 -21.55557,10.77779 -41.55943,24.48944 -59.79493,40.22041 -8.47422,7.31067 -20.7018,16.20737 -25.48637,26.46662 39.81265,13.50385 88.65728,4.96199 123.51086,-17.5111 16.60828,-10.70918 30.50031,-24.77961 42.56615,-40.32334 6.98425,-8.99865 13.15979,-18.64818 18.99225,-28.42711 3.09267,-5.18452 6.88818,-10.69446 8.03898,-16.66416 -11.16302,-3.77688 -21.85848,-8.4301 -33.32832,-11.29732 -51.98827,-12.99707 -125.46547,-17.39739 -159.7515,32.86271 -4.31504,6.32552 -8.00467,13.36661 -10.57683,20.58514 -4.40915,12.37852 -5.13551,25.24522 -5.13551,38.22955 M 478.174,304.19633 c -10.80916,-2.09576 -21.34972,-4.66793 -32.34808,-5.71482 -29.15346,-2.77703 -60.36642,1.24786 -88.22205,9.97595 -82.05139,25.70987 -151.37235,99.05864 -175.68928,181.00516 -19.26966,64.93731 -9.59366,138.17336 25.3207,196.04898 15.07224,24.9835 35.35547,47.59383 59.20581,64.49522 62.34651,44.18159 142.13551,61.07415 216.63412,42.45441 27.61547,-6.90191 54.56827,-19.73527 78.4196,-35.08983 19.83721,-12.77063 39.33625,-27.33021 55.59361,-44.50017 10.72584,-11.32772 19.66665,-25.9667 31.64819,-35.85933 6.9519,-5.74031 13.24997,-5.33842 21.56538,-6.63429 9.23097,-1.43803 17.83654,-3.8308 26.46661,-7.4234 31.0473,-12.92257 52.36273,-44.91384 60.85361,-76.44734 3.05346,-11.34046 3.84255,-22.64171 3.84255,-34.30857 0,-8.50853 -0.66557,-17.32485 -3.29263,-25.48637 -1.79091,-5.56387 -4.41993,-11.04834 -8.0086,-15.68392 -10.51215,-13.5813 -24.44927,-16.66417 -40.65174,-16.66417 -30.40229,0 -59.65083,18.79719 -79.11655,41.1703 -19.64018,22.57405 -31.57075,50.09933 -28.54277,80.38009 1.30569,13.05881 9.8299,26.98809 7.01856,40.19003 -1.93108,9.06628 -7.8645,16.35832 -13.40976,23.52588 -12.93727,16.72004 -28.38396,31.97558 -45.7294,44.11102 0,-5.95794 0.68224,-11.72569 0.94201,-17.64441 0.51071,-11.66099 -0.74596,-20.21853 8.53304,-29.09956 5.5129,-5.27666 14.18218,-3.36028 19.3069,-10.15239 14.49194,-19.20791 -13.57639,-41.62708 -29.58084,-24.42084 -4.40033,4.73066 -5.8207,10.27296 -4.87378,16.62104 0.38719,2.59471 1.99872,5.17764 1.66052,7.84195 -0.81556,6.43041 -8.32914,10.12985 -9.48778,16.66417 -2.12518,11.9776 -0.86065,25.09231 -2.01734,37.2493 -0.34113,3.58378 0.73028,8.3262 -1.17435,11.55414 -2.66822,4.52285 -11.0101,7.09698 -15.65646,9.03101 0,-11.21597 1.43311,-22.16727 1.92226,-33.32834 0.61461,-14.03809 0.50091,-28.16537 1.83208,-42.15052 0.87731,-9.21529 -1.13414,-19.29515 1.45762,-28.32026 1.19688,-4.16702 7.29204,-5.18158 10.38079,-7.77531 6.11281,-5.13451 9.71815,-13.76361 9.71815,-21.73889 0,-19.54412 -20.67141,-30.59932 -38.05409,-25.16387 -23.08574,7.21853 -26.31074,46.86747 0,51.63049 0,27.07633 -1.18021,54.36536 -3.02895,81.36032 -0.78322,11.44241 -2.6153,22.83089 -2.85252,34.30858 -6.13339,0.53913 -11.44925,3.63768 -17.64441,3.92098 0.35878,-17.37485 5.87461,-34.47914 5.88148,-51.95298 0.003,-7.60279 0.33132,-14.93011 -4.02783,-21.56441 -7.69101,-11.70511 -23.04655,-18.80012 -34.20172,-26.75285 -5.16002,-3.67885 -10.9709,-7.42143 -13.63913,-13.43818 -2.78586,-6.28043 -1.20178,-12.20698 -0.36759,-18.62464 0.84105,-6.4755 0.85869,-14.13318 -0.14704,-20.58515 -4.34739,-27.88993 -25.2266,-48.5574 -46.62143,-65.26078 -16.74846,-13.07451 -34.1782,-25.22562 -50.97274,-38.22858 -7.02344,-5.43742 -16.22109,-11.58649 -24.48749,-4.93161 -6.25005,5.03258 -6.25103,13.25095 -0.78911,18.93833 14.28512,14.87717 31.58546,27.53018 46.842,41.45065 5.46682,4.98747 18.46388,13.24212 10.55919,21.4203 -7.67924,7.94391 -17.60128,-4.36209 -23.30238,-9.24469 -14.44194,-12.36873 -27.81053,-25.90984 -42.15053,-38.35894 -5.26,-4.56598 -13.32251,-9.86029 -20.57045,-6.13731 -9.12706,4.68752 -7.69884,15.0644 -1.87227,21.53793 14.33021,15.92017 30.82871,29.95139 45.96859,45.09127 4.42973,4.42973 16.35735,12.30893 11.89724,19.56176 -6.05203,9.84461 -14.93403,1.7027 -20.71944,-3.31322 -15.24183,-13.21566 -28.36535,-29.12503 -42.31716,-43.65325 -6.81467,-7.09697 -20.99097,-8.68692 -23.13183,3.87883 -1.38606,8.14094 3.90824,14.67525 8.59185,20.58515 7.61357,9.6064 15.20457,19.17751 23.25239,28.4271 12.03545,13.83126 24.65708,27.44098 38.50598,39.48623 9.32016,8.10564 19.38434,15.64666 31.36783,19.29024 10.28866,3.12698 22.89754,2.99269 33.32833,0.52541 6.12555,-1.4488 12.29129,-4.94436 18.62465,-5.24725 4.44836,-0.2137 9.79951,1.30568 13.72342,3.33087 2.87997,1.48702 5.42861,3.76218 8.82222,3.8553 4.02195,0.11076 7.64199,-1.79287 11.76294,-1.11944 8.05271,1.3155 14.49783,7.67531 20.58122,12.61281 3.28676,2.66724 6.72545,5.45408 8.13702,9.60738 2.48883,7.32146 -0.29114,16.88472 -0.29114,24.50515 -4.08566,-3.32696 -10.18866,-7.14207 -12.71574,-11.85019 -1.44488,-2.69175 -0.73126,-5.85598 -1.39391,-8.73496 -1.10375,-4.7934 -5.03258,-9.10647 -9.41623,-11.20126 -15.14576,-7.24008 -31.20903,9.38977 -22.47212,23.94052 5.9393,9.89361 13.30095,6.15888 22.47212,7.57044 4.73751,0.72929 14.21649,8.20857 16.6328,12.35696 1.51447,2.59765 0.46561,5.72757 0.198,8.50363 -0.59696,6.19319 -1.14591,12.39911 -1.14688,18.62466 -13.4372,0.11076 -26.6803,2.51334 -40.19004,1.92225 -38.45599,-1.68406 -76.1817,-12.67848 -108.80719,-33.34205 -15.4222,-9.76814 -29.01819,-21.75261 -41.2438,-35.23686 -80.55751,-88.85332 -60.86537,-234.7667 26.54014,-311.43753 34.13799,-29.94551 76.17483,-49.03871 121.55036,-52.14609 13.44895,-0.92046 26.78617,2.74272 40.19004,2.85349 -6.14614,4.87377 -15.96035,9.43486 -19.57745,16.66514 -3.56613,7.12639 2.93584,12.57262 9.775,11.55219 7.63513,-1.14002 14.96246,-8.33698 21.56538,-12.11485 11.85215,-6.77937 25.14622,-12.45009 38.22956,-16.37596 62.53571,-18.76091 137.31172,-13.0059 193.10826,22.52014 22.61423,14.39882 42.18286,32.54412 57.98245,54.21244 15.20262,20.84884 26.36761,43.7503 33.10189,68.61714 4.71891,17.42582 8.06938,35.8064 8.86239,53.91348 5.47271,124.99299 -86.38604,239.14838 -200.91196,280.04813 -25.5991,9.14176 -52.15296,15.79665 -79.39985,16.96608 19.47551,-14.26943 38.82554,-30.63363 50.97273,-51.95299 -8.36638,3.87785 -15.60548,11.31595 -23.52587,16.24756 -14.14395,8.80554 -29.40342,15.581 -45.09127,21.13507 -51.75888,18.32469 -109.03361,17.51991 -161.7404,3.63475 -10.70134,-2.8192 -21.26838,-7.1656 -31.36784,-11.64826 -4.3317,-1.92324 -8.15955,-4.51991 -12.74319,-5.84324 9.3437,10.76505 22.51035,19.25496 34.30858,27.12044 42.24855,28.16538 91.92246,41.00561 142.1355,44.52468 78.26767,5.48643 159.03298,-8.53401 226.43658,-50.49634 22.60837,-14.07533 42.95924,-30.77968 61.75544,-49.57588 18.50604,-18.50604 35.21823,-39.66071 47.7291,-62.73568 14.03221,-25.87943 25.17171,-53.5939 31.78149,-82.34056 12.27463,-53.38414 13.13333,-114.49555 -5.44232,-166.64165 -7.96154,-22.35153 -19.36277,-44.65603 -33.51555,-63.71591 -24.62963,-33.1705 -56.18764,-60.96928 -93.48596,-79.14596 -60.387,-29.42793 -131.79196,-31.62662 -195.06873,-11.03657 -0.94104,-6.28436 -3.93373,-11.87078 -6.44609,-17.64441 -6.99013,-16.06818 -16.17208,-30.99338 -27.81347,-44.11103 -5.23549,-5.90009 -10.58272,-12.1266 -17.69342,-15.85546 -8.80848,-4.61989 -19.81075,-6.44999 -29.40735,-3.29068 -9.07805,2.98877 -15.72117,11.28361 -13.12254,21.10664 3.24657,12.27266 16.65633,17.77478 25.86573,24.92273 12.46381,9.67501 21.55656,21.72026 31.36783,33.89196 m -85.28131,120.02119 c -4.31012,0.69402 -8.30169,2.13301 -11.76196,4.85221 -22.05355,17.33368 -9.25154,57.39137 20.58417,53.23613 24.8198,-3.45634 37.28362,-33.78121 17.6297,-51.47659 -3.10248,-2.79272 -6.77447,-4.91691 -10.76799,-6.15594 -4.78849,-1.48507 -10.7719,-1.24688 -15.68392,-0.45581 m 233.29828,0.0275 c -3.96703,0.7489 -7.59885,2.4859 -10.77876,4.96102 -22.58387,17.58069 -8.2419,57.89816 21.56147,53.07536 8.66438,-1.40273 16.96902,-5.9344 21.74771,-13.41858 10.64644,-16.672 2.68882,-39.44898 -16.84648,-44.19433 -4.93358,-1.19885 -10.68566,-1.36842 -15.68394,-0.42347 M 460.75309,474.7864 c -4.46894,2.72116 -3.325,9.1251 -0.64206,12.6285 6.13045,8.00467 16.76318,14.00378 25.90493,17.8532 26.39505,11.11696 64.1188,5.12373 84.19421,-15.89272 4.76204,-4.98551 6.13537,-16.43282 -3.81412,-15.43591 -6.65978,0.66656 -12.65399,7.50182 -18.62466,10.30532 -13.45778,6.31767 -30.40817,9.06334 -45.09127,6.19711 -10.57978,-2.06538 -19.60588,-5.63249 -28.4271,-11.91293 -3.70729,-2.63979 -8.74379,-6.63821 -13.49993,-3.74257 z"
     id="path1" />
</svg>
