<?xml version="1.0" encoding="UTF-8" standalone="no"?>
<svg
   width="1024"
   height="1024"
   version="1.1"
   id="svg1"
   xmlns="http://www.w3.org/2000/svg"
   xmlns:svg="http://www.w3.org/2000/svg">
  <path
     style="fill:#ff6f61;stroke:none;stroke-width:1.3818"
     d="m 505.77125,145.83451 c 7.39264,-2.86309 13.12159,-8.51879 19.34521,-13.33576 9.38657,-7.26274 18.93481,-14.34171 29.01782,-20.62198 40.20762,-25.043757 88.59688,-46.573589 136.79823,-47.568485 -13.75167,7.247543 -28.85613,12.311841 -42.83581,19.30237 -30.38579,15.192896 -58.5842,34.521525 -84.28982,56.696655 -11.94568,10.30546 -29.18225,22.84669 -35.92682,37.30861 56.12183,19.03568 124.97556,6.99468 174.10685,-24.68448 23.41185,-15.09617 42.99473,-34.93053 60.00331,-56.841745 9.84532,-12.684928 18.55066,-26.287372 26.77238,-40.072213 4.35959,-7.308342 9.70991,-15.075443 11.33215,-23.490608 -15.73594,-5.324076 -30.81277,-11.883484 -46.98121,-15.92525 -73.28517,-18.3212916 -176.86217,-24.5241937 -225.1934,46.32486 -6.08269,8.916759 -11.28379,18.84223 -14.90964,29.01781 -6.21533,17.449376 -7.23925,35.586896 -7.23925,53.890216 m -41.45401,73.23542 c -15.23711,-2.95429 -30.09561,-6.58013 -45.59941,-8.05589 -41.09613,-3.91465 -85.09542,1.75903 -124.36204,14.06259 C 178.69218,261.31848 80.974023,364.71446 46.695699,480.23022 19.532266,571.76896 33.172018,675.00604 82.388982,756.5903 c 21.246568,35.21795 49.838778,67.09056 83.459368,90.91557 87.88665,62.28051 200.36106,86.09307 305.37789,59.84577 38.92808,-9.72926 76.92207,-27.81979 110.54404,-49.46431 27.9635,-18.0021 55.45027,-38.52598 78.36743,-62.72959 15.11966,-15.96808 27.72306,-36.6039 44.6128,-50.54903 9.79973,-8.09182 18.6778,-7.52528 30.39962,-9.35203 13.01241,-2.0271 25.14324,-5.40007 37.30861,-10.46437 43.76577,-18.21627 73.81302,-63.31271 85.78217,-107.76386 4.30431,-15.98604 5.41665,-31.91682 5.41665,-48.36301 0,-11.99403 -0.93824,-24.42193 -4.64147,-35.92681 -2.52454,-7.8431 -6.23053,-15.57427 -11.2893,-22.1088 -14.81843,-19.14485 -34.46487,-23.49061 -57.30464,-23.49061 -42.85655,0 -84.08671,26.49741 -111.5265,58.03562 -27.68576,31.82148 -44.50364,70.62243 -40.23527,113.30763 1.84056,18.40835 13.8567,38.04374 9.8937,56.65382 -2.72215,12.78028 -11.08619,23.05949 -18.90304,33.16321 -18.23699,23.56937 -40.01141,45.07433 -64.46236,62.18102 0,-8.39858 0.96173,-16.5291 1.3279,-24.8724 0.71992,-16.4379 -1.05155,-28.50102 12.02857,-41.02014 7.77125,-7.43822 19.99189,-4.73681 27.21595,-14.3113 20.42854,-27.07638 -19.13794,-58.67953 -41.69859,-34.4248 -6.2029,6.66858 -8.20514,14.48127 -6.87032,23.42981 0.54582,3.65763 2.8175,7.29867 2.34077,11.0544 -1.14966,9.06461 -11.74115,14.27954 -13.37444,23.49061 -2.99574,16.88423 -1.21322,35.37132 -2.84375,52.50842 -0.48086,5.05187 1.02945,11.73702 -1.65539,16.28728 -3.76127,6.37563 -15.52039,10.00424 -22.07012,12.73053 0,-15.81056 2.0202,-31.24804 2.70971,-46.98121 0.86639,-19.78878 0.7061,-39.70328 2.58259,-59.41743 1.23671,-12.9903 -1.59875,-27.19935 2.05474,-39.92159 1.68717,-5.87404 10.27921,-7.3042 14.63326,-10.96045 8.6169,-7.23786 13.69916,-19.40185 13.69916,-30.64418 0,-27.55034 -29.1394,-43.13429 -53.64287,-35.4722 -32.54278,10.17557 -37.0889,66.06664 0,72.78081 0,38.16809 -1.66368,76.63604 -4.26976,114.68944 -1.10406,16.12976 -3.68664,32.18351 -4.02104,48.36301 -8.64593,0.75999 -16.13943,5.12787 -24.87241,5.5272 0.50575,-24.49241 8.28113,-48.60345 8.29081,-73.23541 0.004,-10.71726 0.46704,-21.04621 -5.67782,-30.39824 -10.8416,-16.50008 -32.48752,-26.50155 -48.2124,-37.7121 -7.2738,-5.18589 -15.46512,-10.46161 -19.22637,-18.9431 -3.92708,-8.8532 -1.69409,-17.20756 -0.51818,-26.2542 1.18559,-9.12818 1.21046,-19.92281 -0.20726,-29.01781 -6.1283,-39.31499 -35.56064,-68.44887 -65.71982,-91.99475 -23.60945,-18.43045 -48.17923,-35.55925 -71.85362,-53.88884 -9.9006,-7.66484 -22.86603,-16.33287 -34.51876,-6.95183 -8.81036,7.09417 -8.81173,18.67918 -1.11235,26.69639 20.13698,20.97157 44.52438,38.80786 66.03072,58.4308 7.7063,7.0306 26.0276,18.66675 14.88476,30.19511 -10.82503,11.1981 -24.81162,-6.14902 -32.84817,-13.03176 -20.35806,-17.43556 -39.20305,-36.52376 -59.41741,-54.07261 -7.41474,-6.43644 -18.78006,-13.89954 -28.99709,-8.65146 -12.86594,6.60777 -10.85265,21.23551 -2.63924,30.36092 20.20054,22.44182 43.45762,42.22091 64.79954,63.56281 6.24435,6.24437 23.05809,17.35128 16.7709,27.57522 -8.53123,13.87742 -21.05172,2.40019 -29.20711,-4.67049 -21.48561,-18.62943 -39.98516,-41.05605 -59.65232,-61.53571 -9.60628,-10.00424 -29.58988,-12.24552 -32.60772,5.46778 -1.95388,11.47585 5.50922,20.68693 12.11147,29.0178 10.73244,13.54165 21.43311,27.03355 32.77769,40.07222 16.96575,19.4972 34.7578,38.68212 54.27989,55.66169 13.13815,11.4261 27.32509,22.05629 44.21761,27.19245 14.50337,4.40794 32.27747,4.21863 46.98121,0.74064 8.63488,-2.0423 17.3264,-6.9698 26.25421,-7.39677 6.27061,-0.30124 13.81386,1.84055 19.3452,4.69535 4.05974,2.0962 7.65241,5.30335 12.43621,5.43463 5.66953,0.15613 10.77252,-2.52732 16.58161,-1.57802 11.35149,1.85438 20.43682,10.81949 29.01228,17.77962 4.63318,3.75988 9.48053,7.68834 11.47032,13.54303 3.50839,10.32066 -0.41039,23.80151 -0.41039,34.54363 -5.75934,-4.68983 -14.36244,-10.0678 -17.92471,-16.70459 -2.03678,-3.79442 -1.03083,-8.25487 -1.96493,-12.31323 -1.5559,-6.75699 -7.09416,-12.83692 -13.27357,-15.78982 -21.3502,-10.20598 -43.99376,13.23627 -31.67778,33.74771 8.37233,13.94651 18.74965,8.68185 31.67778,10.67164 6.67824,1.02807 20.04025,11.5712 23.44638,17.41897 2.13489,3.66178 0.65637,8.07387 0.27914,11.98713 -0.84152,8.73022 -1.61533,17.47839 -1.61671,26.25421 -18.94173,0.15613 -37.60985,3.54293 -56.65383,2.70971 C 329.96341,860.56111 276.78343,845.06284 230.79297,815.93448 209.0531,802.16485 189.88753,785.27096 172.65371,766.2629 59.095976,641.01098 86.854962,435.32447 210.06597,327.24556 c 48.12257,-42.21261 107.3797,-69.12733 171.34324,-73.50764 18.9583,-1.29751 37.75908,3.86628 56.65383,4.02242 -8.66389,6.87032 -22.49848,13.29984 -27.59733,23.49199 -5.02699,10.04569 4.1385,17.72298 13.77932,16.28452 10.76284,-1.60703 21.0918,-11.75221 30.39961,-17.07767 16.70735,-9.55653 35.44733,-17.55024 53.89021,-23.08436 88.15335,-26.44627 193.56123,-18.33373 272.21469,31.74549 31.87813,20.29726 59.46303,45.87577 81.73488,76.42047 21.43034,29.38952 37.16905,61.67251 46.66202,96.72603 6.65198,24.56427 11.37498,50.47441 12.49285,75.99902 7.7146,176.19615 -121.77392,337.1151 -283.21519,394.76934 -36.08572,12.88666 -73.51731,22.26771 -111.92584,23.9162 27.45362,-20.11488 54.73036,-43.18264 71.85363,-73.23543 -11.79367,5.4664 -21.99827,15.95151 -33.16321,22.90334 -19.93801,12.41272 -41.44849,21.96372 -63.56283,29.793 -72.96182,25.83138 -153.69904,24.69692 -227.99707,5.12372 -15.08512,-3.97406 -29.98092,-10.10096 -44.21761,-16.41993 -6.10617,-2.71109 -11.5021,-6.37148 -17.9634,-8.23692 13.17131,15.17494 31.73165,27.14271 48.36301,38.23028 59.5556,39.70326 129.57833,57.80347 200.36106,62.76417 110.32985,7.7339 224.18054,-12.03 319.1959,-71.1821 31.86985,-19.84128 60.55741,-43.38854 87.05343,-69.88456 26.08701,-26.08701 49.64533,-55.90764 67.28124,-88.43522 19.78048,-36.48092 35.48325,-75.54856 44.80074,-116.07124 17.30293,-75.25285 18.51333,-161.39844 -7.67176,-234.90607 -11.22298,-31.50782 -27.2947,-62.9493 -47.24514,-89.81704 -34.71912,-46.75874 -79.2048,-85.94522 -131.7823,-111.56794 -85.12444,-41.48303 -185.7803,-44.58241 -274.97829,-15.5577 -1.32652,-8.85872 -5.54517,-16.7336 -9.08672,-24.8724 -9.85361,-22.65048 -22.79694,-43.68977 -39.20721,-62.18102 -7.38019,-8.31706 -14.91791,-17.09426 -24.94149,-22.35063 -12.41686,-6.51242 -27.92619,-9.09224 -41.45401,-4.6387 -12.79686,4.21311 -22.16132,15.90591 -18.49817,29.75293 4.57653,17.30014 23.47956,25.05619 36.46157,35.13227 17.56959,13.63838 30.38718,30.61793 44.21761,47.77575 M 344.1006,388.25758 c -6.07577,0.97831 -11.70246,3.0068 -16.58022,6.83991 -31.08775,24.43438 -13.04144,80.90165 29.01642,75.0442 34.9872,-4.87223 52.55678,-47.61961 24.85169,-72.56386 -4.3734,-3.93675 -9.54962,-6.93112 -15.17908,-8.67772 -6.7501,-2.09342 -15.1846,-1.75764 -22.10881,-0.64253 m 328.86851,0.0387 c -5.59215,1.0557 -10.71172,3.50426 -15.19428,6.99331 -31.8353,24.78258 -11.61817,81.61604 30.39408,74.81757 12.21374,-1.97735 23.92035,-8.36541 30.65662,-18.91546 15.00775,-23.50166 3.79029,-55.60918 -23.74762,-62.29847 -6.9546,-1.68994 -15.063,-1.929 -22.1088,-0.59695 m -233.20923,71.24561 c -6.29962,3.83587 -4.68707,12.86318 -0.90508,17.80173 8.64178,11.28379 23.63017,19.7404 36.51685,25.16673 37.20774,15.671 90.38494,7.22268 118.68422,-22.40312 6.71278,-7.02785 8.64868,-23.16451 -5.37659,-21.75922 -9.38795,0.93963 -17.83766,10.57492 -26.2542,14.52687 -18.97075,8.9057 -42.86483,12.77612 -63.56283,8.73574 -14.91377,-2.91146 -27.63739,-7.93982 -40.07221,-16.79302 -5.22597,-3.72119 -12.32566,-9.35756 -19.03016,-5.27571 z"
     id="path1" />
</svg>
